<mxfile host="Electron" modified="2023-04-18T12:25:26.441Z" agent="Mozilla/5.0 (Windows NT 10.0; Win64; x64) AppleWebKit/537.36 (KHTML, like Gecko) draw.io/21.1.2 Chrome/106.0.5249.199 Electron/21.4.3 Safari/537.36" etag="bNi7kDDeE3ENy03Qnnio" version="21.1.2" type="device" pages="2">
  <diagram id="IKzNyZ5HKRme_kFSyMwN" name="Arch overview">
    <mxGraphModel dx="1050" dy="679" grid="1" gridSize="10" guides="1" tooltips="1" connect="1" arrows="1" fold="1" page="1" pageScale="1" pageWidth="1169" pageHeight="827" math="0" shadow="0">
      <root>
        <mxCell id="0" />
        <mxCell id="1" parent="0" />
        <mxCell id="7R2AokxFrsVpJuRbl_Gq-19" value="HOST" style="rounded=0;whiteSpace=wrap;html=1;dashed=1;verticalAlign=top;fillColor=#647687;strokeColor=#314354;fontColor=#ffffff;" parent="1" vertex="1">
          <mxGeometry x="85" y="40" width="120" height="640" as="geometry" />
        </mxCell>
        <mxCell id="7R2AokxFrsVpJuRbl_Gq-2" value="API" style="rounded=0;whiteSpace=wrap;html=1;" parent="1" vertex="1">
          <mxGeometry x="110" y="81" width="70" height="310" as="geometry" />
        </mxCell>
        <mxCell id="7R2AokxFrsVpJuRbl_Gq-3" value="DB" style="shape=datastore;whiteSpace=wrap;html=1;" parent="1" vertex="1">
          <mxGeometry x="560" y="152.5" width="80" height="120" as="geometry" />
        </mxCell>
        <mxCell id="7R2AokxFrsVpJuRbl_Gq-26" value="CQRS&amp;nbsp; Command" style="edgeStyle=orthogonalEdgeStyle;rounded=0;orthogonalLoop=1;jettySize=auto;html=1;exitX=1;exitY=0.75;exitDx=0;exitDy=0;entryX=0;entryY=0.5;entryDx=0;entryDy=0;fontColor=default;fontSize=12;fillColor=default;" parent="1" source="7R2AokxFrsVpJuRbl_Gq-11" target="7R2AokxFrsVpJuRbl_Gq-25" edge="1">
          <mxGeometry x="-0.52" y="20" relative="1" as="geometry">
            <Array as="points">
              <mxPoint x="180" y="596" />
            </Array>
            <mxPoint as="offset" />
          </mxGeometry>
        </mxCell>
        <mxCell id="7R2AokxFrsVpJuRbl_Gq-11" value="JOB" style="rounded=0;whiteSpace=wrap;html=1;" parent="1" vertex="1">
          <mxGeometry x="110" y="440" width="70" height="196" as="geometry" />
        </mxCell>
        <mxCell id="7R2AokxFrsVpJuRbl_Gq-15" style="edgeStyle=orthogonalEdgeStyle;rounded=0;orthogonalLoop=1;jettySize=auto;html=1;exitX=1;exitY=0.5;exitDx=0;exitDy=0;entryX=0;entryY=0.7;entryDx=0;entryDy=0;" parent="1" source="7R2AokxFrsVpJuRbl_Gq-12" target="7R2AokxFrsVpJuRbl_Gq-3" edge="1">
          <mxGeometry relative="1" as="geometry" />
        </mxCell>
        <mxCell id="7R2AokxFrsVpJuRbl_Gq-16" value="STORE TASK" style="edgeLabel;html=1;align=center;verticalAlign=middle;resizable=0;points=[];" parent="7R2AokxFrsVpJuRbl_Gq-15" vertex="1" connectable="0">
          <mxGeometry x="-0.2313" y="3" relative="1" as="geometry">
            <mxPoint x="4" y="-17" as="offset" />
          </mxGeometry>
        </mxCell>
        <mxCell id="7R2AokxFrsVpJuRbl_Gq-17" value="DOMAIN EVENT (TASK CREATED)" style="edgeStyle=orthogonalEdgeStyle;rounded=0;orthogonalLoop=1;jettySize=auto;html=1;" parent="1" edge="1">
          <mxGeometry x="0.2308" y="110" relative="1" as="geometry">
            <mxPoint x="480" y="240" as="sourcePoint" />
            <mxPoint x="480" y="370" as="targetPoint" />
            <Array as="points">
              <mxPoint x="480" y="360" />
              <mxPoint x="480" y="360" />
            </Array>
            <mxPoint as="offset" />
          </mxGeometry>
        </mxCell>
        <mxCell id="7R2AokxFrsVpJuRbl_Gq-12" value="Task Scheduler" style="shape=hexagon;perimeter=hexagonPerimeter2;whiteSpace=wrap;html=1;fixedSize=1;" parent="1" vertex="1">
          <mxGeometry x="300" y="196" width="120" height="80" as="geometry" />
        </mxCell>
        <mxCell id="7R2AokxFrsVpJuRbl_Gq-13" value="CQRS Command" style="endArrow=classic;startArrow=none;html=1;rounded=0;entryX=0;entryY=0.5;entryDx=0;entryDy=0;exitX=1;exitY=0.5;exitDx=0;exitDy=0;startFill=0;" parent="1" source="7R2AokxFrsVpJuRbl_Gq-2" target="7R2AokxFrsVpJuRbl_Gq-12" edge="1">
          <mxGeometry x="0.1667" y="20" width="50" height="50" relative="1" as="geometry">
            <mxPoint x="230" y="376" as="sourcePoint" />
            <mxPoint x="280" y="326" as="targetPoint" />
            <mxPoint as="offset" />
          </mxGeometry>
        </mxCell>
        <mxCell id="7R2AokxFrsVpJuRbl_Gq-22" value="" style="group" parent="1" vertex="1" connectable="0">
          <mxGeometry x="324" y="376" width="495" height="60" as="geometry" />
        </mxCell>
        <mxCell id="7R2AokxFrsVpJuRbl_Gq-1" value="" style="shape=cylinder3;whiteSpace=wrap;html=1;boundedLbl=1;backgroundOutline=1;size=15;rotation=90;" parent="7R2AokxFrsVpJuRbl_Gq-22" vertex="1">
          <mxGeometry x="217.5" y="-217.5" width="60" height="495" as="geometry" />
        </mxCell>
        <mxCell id="7R2AokxFrsVpJuRbl_Gq-4" value="" style="shape=message;html=1;html=1;outlineConnect=0;labelPosition=center;verticalLabelPosition=bottom;align=center;verticalAlign=top;" parent="7R2AokxFrsVpJuRbl_Gq-22" vertex="1">
          <mxGeometry x="295" y="10" width="60" height="40" as="geometry" />
        </mxCell>
        <mxCell id="7R2AokxFrsVpJuRbl_Gq-5" value="" style="shape=message;html=1;html=1;outlineConnect=0;labelPosition=center;verticalLabelPosition=bottom;align=center;verticalAlign=top;" parent="7R2AokxFrsVpJuRbl_Gq-22" vertex="1">
          <mxGeometry x="385" y="10" width="60" height="40" as="geometry" />
        </mxCell>
        <mxCell id="7R2AokxFrsVpJuRbl_Gq-8" value="" style="shape=message;html=1;html=1;outlineConnect=0;labelPosition=center;verticalLabelPosition=bottom;align=center;verticalAlign=top;" parent="7R2AokxFrsVpJuRbl_Gq-22" vertex="1">
          <mxGeometry x="205" y="10" width="60" height="40" as="geometry" />
        </mxCell>
        <mxCell id="7R2AokxFrsVpJuRbl_Gq-9" value="" style="shape=message;html=1;html=1;outlineConnect=0;labelPosition=center;verticalLabelPosition=bottom;align=center;verticalAlign=top;" parent="7R2AokxFrsVpJuRbl_Gq-22" vertex="1">
          <mxGeometry x="119" y="10" width="60" height="40" as="geometry" />
        </mxCell>
        <mxCell id="7R2AokxFrsVpJuRbl_Gq-10" value="" style="shape=message;html=1;html=1;outlineConnect=0;labelPosition=center;verticalLabelPosition=bottom;align=center;verticalAlign=top;" parent="7R2AokxFrsVpJuRbl_Gq-22" vertex="1">
          <mxGeometry x="35" y="10" width="60" height="40" as="geometry" />
        </mxCell>
        <mxCell id="7R2AokxFrsVpJuRbl_Gq-23" style="rounded=0;orthogonalLoop=1;jettySize=auto;html=1;entryX=1;entryY=0.25;entryDx=0;entryDy=0;fontColor=#000000;edgeStyle=orthogonalEdgeStyle;exitX=0.5;exitY=1;exitDx=0;exitDy=0;exitPerimeter=0;" parent="1" source="7R2AokxFrsVpJuRbl_Gq-1" target="7R2AokxFrsVpJuRbl_Gq-11" edge="1">
          <mxGeometry relative="1" as="geometry">
            <mxPoint x="340" y="406" as="sourcePoint" />
          </mxGeometry>
        </mxCell>
        <mxCell id="7R2AokxFrsVpJuRbl_Gq-24" value="DEQUEU TASK" style="edgeLabel;html=1;align=center;verticalAlign=middle;resizable=0;points=[];fontColor=default;" parent="7R2AokxFrsVpJuRbl_Gq-23" vertex="1" connectable="0">
          <mxGeometry x="0.0986" relative="1" as="geometry">
            <mxPoint x="8" y="-67" as="offset" />
          </mxGeometry>
        </mxCell>
        <mxCell id="7R2AokxFrsVpJuRbl_Gq-36" style="edgeStyle=orthogonalEdgeStyle;rounded=0;orthogonalLoop=1;jettySize=auto;html=1;entryX=0.5;entryY=1;entryDx=0;entryDy=0;fontColor=#000000;" parent="1" source="7R2AokxFrsVpJuRbl_Gq-25" target="7R2AokxFrsVpJuRbl_Gq-30" edge="1">
          <mxGeometry relative="1" as="geometry" />
        </mxCell>
        <mxCell id="7R2AokxFrsVpJuRbl_Gq-37" value="EXECUTE CURRENT TASK" style="edgeLabel;html=1;align=center;verticalAlign=middle;resizable=0;points=[];fontColor=default;" parent="7R2AokxFrsVpJuRbl_Gq-36" vertex="1" connectable="0">
          <mxGeometry x="-0.4057" relative="1" as="geometry">
            <mxPoint y="-18" as="offset" />
          </mxGeometry>
        </mxCell>
        <mxCell id="7R2AokxFrsVpJuRbl_Gq-38" value="PUBLISH TASK" style="edgeStyle=orthogonalEdgeStyle;rounded=0;orthogonalLoop=1;jettySize=auto;html=1;entryX=0.983;entryY=0.192;entryDx=0;entryDy=0;entryPerimeter=0;fontColor=default;fillColor=default;strokeColor=default;gradientColor=none;fontSize=12;" parent="1" edge="1">
          <mxGeometry x="-0.066" y="-59" relative="1" as="geometry">
            <mxPoint x="722" y="556" as="sourcePoint" />
            <mxPoint x="720.96" y="434.98" as="targetPoint" />
            <Array as="points">
              <mxPoint x="721" y="556" />
            </Array>
            <mxPoint as="offset" />
          </mxGeometry>
        </mxCell>
        <mxCell id="7R2AokxFrsVpJuRbl_Gq-25" value="Task Dispatcher" style="shape=hexagon;perimeter=hexagonPerimeter2;whiteSpace=wrap;html=1;fixedSize=1;" parent="1" vertex="1">
          <mxGeometry x="665" y="556" width="120" height="80" as="geometry" />
        </mxCell>
        <mxCell id="7R2AokxFrsVpJuRbl_Gq-33" value="INJECT NEXT TASK (scoped)" style="edgeStyle=orthogonalEdgeStyle;rounded=0;orthogonalLoop=1;jettySize=auto;html=1;fontColor=default;fillColor=default;strokeColor=default;gradientColor=none;fontSize=12;" parent="1" source="7R2AokxFrsVpJuRbl_Gq-27" edge="1">
          <mxGeometry x="0.0714" y="91" relative="1" as="geometry">
            <mxPoint x="459" y="596" as="targetPoint" />
            <mxPoint as="offset" />
          </mxGeometry>
        </mxCell>
        <mxCell id="7R2AokxFrsVpJuRbl_Gq-27" value="TASK DEFINITION&lt;br&gt;Interceptor" style="rounded=0;whiteSpace=wrap;html=1;dashed=1;fontColor=default;fontSize=12;fillColor=default;strokeColor=default;gradientColor=none;labelBackgroundColor=default;" parent="1" vertex="1">
          <mxGeometry x="399" y="480" width="120" height="60" as="geometry" />
        </mxCell>
        <mxCell id="7R2AokxFrsVpJuRbl_Gq-31" value="" style="group;verticalAlign=middle;" parent="1" vertex="1" connectable="0">
          <mxGeometry x="882" y="346" width="170" height="106" as="geometry" />
        </mxCell>
        <mxCell id="7R2AokxFrsVpJuRbl_Gq-28" value="" style="shape=process;whiteSpace=wrap;html=1;backgroundOutline=1;fontColor=#000000;" parent="7R2AokxFrsVpJuRbl_Gq-31" vertex="1">
          <mxGeometry width="120" height="60" as="geometry" />
        </mxCell>
        <mxCell id="7R2AokxFrsVpJuRbl_Gq-29" value="" style="shape=process;whiteSpace=wrap;html=1;backgroundOutline=1;fontColor=#000000;" parent="7R2AokxFrsVpJuRbl_Gq-31" vertex="1">
          <mxGeometry x="20" y="21" width="120" height="60" as="geometry" />
        </mxCell>
        <mxCell id="7R2AokxFrsVpJuRbl_Gq-30" value="Tasks" style="shape=process;whiteSpace=wrap;html=1;backgroundOutline=1;fontColor=default;" parent="7R2AokxFrsVpJuRbl_Gq-31" vertex="1">
          <mxGeometry x="50" y="46" width="120" height="60" as="geometry" />
        </mxCell>
        <mxCell id="7R2AokxFrsVpJuRbl_Gq-39" style="edgeStyle=orthogonalEdgeStyle;rounded=0;orthogonalLoop=1;jettySize=auto;html=1;fontColor=#000000;exitX=0.5;exitY=0;exitDx=0;exitDy=0;" parent="1" source="7R2AokxFrsVpJuRbl_Gq-28" edge="1">
          <mxGeometry relative="1" as="geometry">
            <mxPoint x="960" y="310" as="sourcePoint" />
            <mxPoint x="640" y="236" as="targetPoint" />
            <Array as="points">
              <mxPoint x="940" y="346" />
              <mxPoint x="940" y="236" />
            </Array>
          </mxGeometry>
        </mxCell>
        <mxCell id="7R2AokxFrsVpJuRbl_Gq-40" value="READ &amp;amp; WRITE CONTEXT DATA" style="edgeLabel;html=1;align=center;verticalAlign=middle;resizable=0;points=[];fontColor=default;fontSize=12;fillColor=default;strokeColor=default;" parent="7R2AokxFrsVpJuRbl_Gq-39" vertex="1" connectable="0">
          <mxGeometry x="0.2581" y="3" relative="1" as="geometry">
            <mxPoint x="1" y="-20" as="offset" />
          </mxGeometry>
        </mxCell>
        <mxCell id="aDpKQrEeXOQIEs1aRNm3-3" value="NOTIFY" style="edgeStyle=orthogonalEdgeStyle;rounded=0;orthogonalLoop=1;jettySize=auto;html=1;fontColor=default;fontSize=12;fillColor=default;" parent="1" source="7R2AokxFrsVpJuRbl_Gq-30" edge="1">
          <mxGeometry x="1" y="22" relative="1" as="geometry">
            <mxPoint x="1100" y="422" as="targetPoint" />
            <mxPoint as="offset" />
          </mxGeometry>
        </mxCell>
      </root>
    </mxGraphModel>
  </diagram>
  <diagram id="dlOlacrZ8nBu2rUd-X0W" name="Arch Organization">
    <mxGraphModel dx="1050" dy="679" grid="1" gridSize="10" guides="1" tooltips="1" connect="1" arrows="1" fold="1" page="1" pageScale="1" pageWidth="1169" pageHeight="827" math="0" shadow="0">
      <root>
        <mxCell id="0" />
        <mxCell id="InmOG6fIud6biOq_pNNc-12" value="Presentation" parent="0" />
        <mxCell id="InmOG6fIud6biOq_pNNc-13" value="CONTROLLERS&lt;br&gt;SWAGGER" style="shape=or;whiteSpace=wrap;html=1;fontColor=#000000;flipV=0;flipH=1;" parent="InmOG6fIud6biOq_pNNc-12" vertex="1">
          <mxGeometry x="260" y="80" width="310" height="600" as="geometry" />
        </mxCell>
        <mxCell id="1" value="Infrastructure" style="" parent="0" />
        <mxCell id="InmOG6fIud6biOq_pNNc-5" value="" style="group" parent="1" vertex="1" connectable="0">
          <mxGeometry x="260" y="80" width="620" height="600" as="geometry" />
        </mxCell>
        <mxCell id="InmOG6fIud6biOq_pNNc-3" value="REPOSITORIES&lt;br&gt;UNIT OF WORK&lt;br&gt;QUEUE MANAGER&lt;br&gt;WORKER&amp;nbsp;" style="shape=or;whiteSpace=wrap;html=1;fontColor=#000000;" parent="InmOG6fIud6biOq_pNNc-5" vertex="1">
          <mxGeometry x="310" width="310" height="600" as="geometry" />
        </mxCell>
        <mxCell id="InmOG6fIud6biOq_pNNc-10" value="Application" style="" parent="0" />
        <mxCell id="InmOG6fIud6biOq_pNNc-11" value="LOGIC&amp;nbsp;&lt;br&gt;USE CASES&lt;br&gt;HANDLERS&lt;br&gt;MAPPERS&lt;br&gt;VALIDATIONS&lt;br&gt;DTO&#39;s" style="ellipse;whiteSpace=wrap;html=1;aspect=fixed;fontColor=#000000;" parent="InmOG6fIud6biOq_pNNc-10" vertex="1">
          <mxGeometry x="362.5" y="172.5" width="415" height="415" as="geometry" />
        </mxCell>
        <mxCell id="InmOG6fIud6biOq_pNNc-8" value="Domain" style="" parent="0" />
        <mxCell id="InmOG6fIud6biOq_pNNc-9" value="&lt;div&gt;ENTITIES&lt;/div&gt;&lt;div&gt;ABSTRACTIONS&lt;/div&gt;&lt;div&gt;BASE&lt;/div&gt;&lt;div&gt;DOMAIN EVENTS&lt;/div&gt;" style="ellipse;whiteSpace=wrap;html=1;aspect=fixed;fontColor=#000000;" parent="InmOG6fIud6biOq_pNNc-8" vertex="1">
          <mxGeometry x="451.25" y="261.25" width="237.5" height="237.5" as="geometry" />
        </mxCell>
        <mxCell id="InmOG6fIud6biOq_pNNc-15" value="Other" parent="0" />
        <mxCell id="InmOG6fIud6biOq_pNNc-16" value="BASED ON CLEAN ARCHITECTURE AND DDD PATTERN" style="text;html=1;align=center;verticalAlign=middle;resizable=0;points=[];autosize=1;strokeColor=none;fillColor=none;fontColor=#000000;fontStyle=1" parent="InmOG6fIud6biOq_pNNc-15" vertex="1">
          <mxGeometry x="390" y="730" width="350" height="30" as="geometry" />
        </mxCell>
      </root>
    </mxGraphModel>
  </diagram>
</mxfile>
